<?xml version="1.0" encoding="UTF-8" standalone="no"?>
<!DOCTYPE svg PUBLIC "-//W3C//DTD SVG 1.0//EN" "http://www.w3.org/TR/2001/REC-SVG-20010904/DTD/svg10.dtd">
<svg xmlns="http://www.w3.org/2000/svg" version="1.0" viewBox="0.00 0.00 588.00 551.00">
<defs>
    <style>
      .logo-fill {
        fill: #131313;
      }

      @media (prefers-color-scheme: dark) {
        .logo-fill {
          fill: #F9F7F7;
        }
      }
    </style>
  </defs>
<path class="logo-fill" d="
  M 180.81 44.03
  C 184.14 44.02 184.71 46.53 185.02 49.43
  C 186.51 63.68 190.24 77.67 201.76 86.03
  Q 210.30 92.22 221.80 94.40
  Q 224.86 94.97 228.03 95.70
  C 230.98 96.38 231.44 100.47 229.52 102.49
  Q 228.68 103.38 225.26 103.89
  C 210.97 106.03 199.02 112.74 191.84 125.00
  C 188.96 129.90 186.64 137.84 185.94 143.24
  Q 185.00 150.42 184.62 151.63
  Q 183.71 154.49 180.90 154.49
  Q 178.08 154.50 177.17 151.63
  Q 176.79 150.43 175.83 143.25
  C 175.12 137.85 172.79 129.91 169.90 125.02
  C 162.70 112.77 150.74 106.08 136.45 103.96
  Q 133.03 103.46 132.19 102.57
  C 130.26 100.55 130.72 96.46 133.67 95.78
  Q 136.84 95.04 139.89 94.47
  Q 151.39 92.27 159.92 86.06
  C 171.43 77.69 175.14 63.69 176.61 49.43
  C 176.91 46.54 177.47 44.03 180.81 44.03
  Z
  M 180.75 70.45
  Q 178.69 75.47 177.80 77.30
  C 172.51 88.06 163.10 95.24 152.19 99.45
  A 0.39 0.39 0.0 0 0 152.20 100.18
  C 166.19 105.06 175.62 115.19 180.76 129.00
  A 0.24 0.24 0.0 0 0 181.20 129.02
  Q 182.70 126.06 183.30 124.76
  Q 191.37 107.23 208.90 99.66
  A 0.38 0.38 0.0 0 0 208.88 98.95
  Q 188.24 91.46 181.31 70.47
  A 0.30 0.30 0.0 0 0 180.75 70.45
  Z"
/>
<path class="logo-fill" d="
  M 335.84 216.72
  A 0.38 0.38 0.0 0 0 335.99 217.43
  Q 366.45 220.92 394.40 230.59
  C 414.29 237.46 434.76 247.90 448.85 263.63
  A 0.81 0.80 -50.7 0 0 450.14 263.50
  C 455.64 254.25 458.37 245.59 454.28 235.31
  C 450.20 225.06 442.03 217.30 432.69 210.70
  A 4.08 4.08 0.0 0 1 431.73 204.99
  L 431.87 204.79
  A 4.04 4.04 0.0 0 1 437.43 203.80
  C 449.82 212.22 460.07 222.95 463.65 236.48
  Q 464.84 241.00 464.74 249.20
  Q 464.63 257.32 464.71 293.66
  Q 464.73 301.61 463.40 306.23
  C 459.12 321.06 446.79 332.91 433.68 341.21
  Q 413.64 353.89 389.77 361.32
  Q 355.24 372.06 317.08 374.35
  C 276.90 376.76 237.54 373.12 199.66 361.34
  Q 175.69 353.89 155.20 341.08
  C 142.35 333.05 130.17 321.29 125.93 306.19
  Q 124.50 301.09 124.65 286.24
  Q 124.77 274.14 124.62 257.81
  Q 124.48 241.29 125.85 236.75
  C 130.83 220.28 145.05 208.24 159.69 200.16
  C 180.87 188.46 203.07 181.99 227.44 177.68
  A 0.67 0.67 0.0 0 0 227.99 177.02
  Q 228.02 153.14 227.99 132.02
  C 227.99 127.49 229.64 125.65 233.60 123.32
  Q 274.02 99.51 290.50 89.97
  C 294.48 87.67 296.65 89.20 300.70 91.55
  Q 340.18 114.42 357.22 124.50
  C 360.10 126.21 360.69 128.65 360.69 132.14
  Q 360.68 165.48 360.70 197.26
  C 360.70 201.66 359.18 203.01 355.44 205.17
  Q 345.92 210.66 335.84 216.72
  Z
  M 294.52 230.97
  Q 294.97 230.97 295.18 230.85
  Q 323.68 213.96 351.09 198.03
  A 2.45 2.44 -15.2 0 0 352.30 195.92
  L 352.30 132.67
  A 2.62 2.60 -75.1 0 0 351.00 130.41
  Q 322.53 113.95 294.77 97.72
  Q 294.64 97.65 294.33 97.65
  Q 294.01 97.65 293.88 97.72
  Q 266.17 114.03 237.75 130.57
  A 2.62 2.60 74.9 0 0 236.45 132.84
  L 236.64 196.09
  A 2.45 2.44 15.1 0 0 237.85 198.19
  Q 265.31 214.04 293.86 230.85
  Q 294.07 230.97 294.52 230.97
  Z
  M 253.23 216.76
  Q 245.40 211.88 232.45 204.56
  Q 228.39 202.27 228.11 198.23
  Q 227.88 194.78 228.02 187.46
  A 0.91 0.91 0.0 0 0 226.95 186.55
  Q 202.09 190.81 179.61 200.10
  C 163.86 206.60 146.60 216.20 137.61 230.85
  C 130.57 242.34 132.29 252.62 139.08 263.76
  A 0.77 0.77 0.0 0 0 140.30 263.88
  Q 153.22 249.83 170.84 240.83
  Q 196.54 227.70 226.70 221.66
  Q 238.62 219.28 253.12 217.24
  A 0.26 0.26 0.0 0 0 253.23 216.76
  Z
  M 294.61 314.56
  Q 298.41 314.56 310.00 314.07
  C 338.02 312.88 364.84 308.81 391.27 300.22
  Q 407.85 294.84 422.58 286.43
  C 428.97 282.78 435.49 277.88 440.80 274.05
  Q 441.51 273.53 443.45 271.33
  A 0.65 0.64 45.4 0 0 443.45 270.50
  C 434.17 259.55 421.91 251.58 408.60 245.40
  C 381.74 232.95 353.55 227.24 324.06 224.20
  A 2.47 2.46 -56.6 0 0 322.56 224.51
  L 299.45 237.86
  A 2.18 2.17 -15.1 0 0 298.36 239.74
  Q 298.40 254.16 298.41 265.65
  C 298.41 268.50 298.01 271.40 294.61 271.40
  C 291.22 271.40 290.82 268.50 290.82 265.65
  Q 290.83 254.16 290.87 239.74
  A 2.18 2.17 15.1 0 0 289.78 237.86
  L 266.67 224.51
  A 2.47 2.46 56.6 0 0 265.17 224.20
  C 235.68 227.23 207.49 232.94 180.63 245.39
  C 167.32 251.57 155.06 259.54 145.78 270.49
  A 0.65 0.64 -45.4 0 0 145.78 271.32
  Q 147.72 273.52 148.43 274.04
  C 153.74 277.87 160.26 282.77 166.65 286.42
  Q 181.38 294.83 197.96 300.21
  C 224.38 308.80 251.20 312.88 279.22 314.06
  Q 290.82 314.56 294.61 314.56
  Z
  M 294.57 322.83
  Q 282.87 322.82 268.26 321.74
  C 240.40 319.68 213.15 314.78 187.00 305.10
  C 173.31 300.03 158.64 292.78 147.41 283.38
  Q 138.72 276.10 136.68 273.80
  Q 134.38 271.20 133.45 270.31
  A 0.28 0.28 0.0 0 0 132.98 270.51
  Q 132.97 281.37 132.94 291.57
  Q 132.91 299.97 134.09 303.89
  C 139.66 322.44 159.49 335.20 176.02 342.97
  C 212.53 360.14 254.59 366.79 294.54 366.82
  C 334.50 366.84 376.57 360.25 413.10 343.13
  C 429.64 335.38 449.49 322.64 455.08 304.10
  Q 456.27 300.18 456.25 291.78
  Q 456.23 281.58 456.23 270.72
  A 0.28 0.28 0.0 0 0 455.76 270.52
  Q 454.83 271.41 452.53 274.01
  Q 450.49 276.30 441.79 283.57
  C 430.55 292.96 415.87 300.19 402.17 305.24
  C 376.01 314.89 348.75 319.75 320.89 321.78
  Q 306.27 322.84 294.57 322.83
  Z"
/>
<rect class="logo-fill" x="-29.51" y="-4.14" transform="translate(317.58,124.52) rotate(30.2)" width="59.02" height="8.28" rx="4.08"/>
<path class="logo-fill" d="
  M 414.31 126.57
  C 417.90 126.57 418.53 129.48 418.64 132.58
  Q 418.73 134.92 419.56 138.73
  C 422.68 152.95 431.79 158.93 445.36 161.65
  C 447.64 162.11 449.41 164.24 448.82 166.70
  C 448.31 168.81 446.76 169.62 444.57 170.08
  C 429.49 173.28 420.55 181.34 418.87 197.14
  C 418.46 201.01 418.51 205.71 414.24 205.70
  C 409.97 205.70 410.03 201.01 409.63 197.13
  C 407.97 181.33 399.05 173.25 383.97 170.03
  C 381.78 169.56 380.23 168.75 379.73 166.64
  C 379.14 164.18 380.92 162.05 383.20 161.60
  C 396.77 158.90 405.89 152.94 409.04 138.72
  Q 409.87 134.91 409.96 132.57
  C 410.08 129.47 410.72 126.57 414.31 126.57
  Z
  M 397.48 165.64
  Q 397.48 165.77 397.54 165.88
  Q 397.58 165.97 397.71 166.03
  Q 409.12 170.81 414.07 182.07
  A 0.37 0.37 0.0 0 0 414.75 182.05
  Q 419.05 171.05 429.89 166.05
  Q 430.05 165.97 430.09 165.91
  Q 430.15 165.80 430.15 165.66
  Q 430.15 165.53 430.09 165.42
  Q 430.05 165.36 429.89 165.28
  Q 419.06 160.26 414.77 149.25
  A 0.37 0.37 0.0 0 0 414.09 149.23
  Q 409.13 160.49 397.71 165.25
  Q 397.58 165.31 397.54 165.40
  Q 397.48 165.51 397.48 165.64
  Z"
/>
<rect class="logo-fill" x="-4.30" y="-29.83" transform="translate(247.98,164.49) rotate(0.1)" width="8.60" height="59.66" rx="4.17"/>
<rect class="logo-fill" x="-29.58" y="-4.19" transform="translate(317.56,204.37) rotate(-30.5)" width="59.16" height="8.38" rx="4.13"/>
<circle class="logo-fill" cx="341.07" cy="261.65" r="8.26"/>
<ellipse class="logo-fill" cx="0.00" cy="0.00" transform="translate(216.76,267.70) rotate(-4.0)" rx="10.64" ry="10.27"/>
<ellipse class="logo-fill" cx="0.00" cy="0.00" transform="translate(378.26,280.10) rotate(-179.3)" rx="7.13" ry="6.60"/>
<ellipse class="logo-fill" cx="0.00" cy="0.00" transform="translate(255.59,290.30) rotate(-171.9)" rx="7.41" ry="7.22"/>
<path class="logo-fill" d="
  M 118.16 475.13
  A 0.79 0.79 0.0 0 1 118.93 476.11
  Q 114.95 491.94 100.15 496.41
  C 86.53 500.52 70.88 496.28 63.14 484.16
  C 56.73 474.12 56.08 459.27 61.01 448.49
  C 66.80 435.84 81.00 429.75 94.53 431.39
  C 105.94 432.78 116.29 440.33 118.51 452.02
  A 1.10 1.10 0.0 0 1 117.55 453.32
  L 107.39 454.48
  A 1.20 1.19 -12.8 0 1 106.11 453.68
  C 103.58 446.32 97.73 442.40 89.81 442.33
  C 72.80 442.19 67.12 461.12 72.02 474.46
  C 75.47 483.83 84.15 488.62 93.78 486.58
  Q 102.67 484.69 106.30 475.78
  A 1.00 0.98 10.8 0 1 107.22 475.16
  L 118.16 475.13
  Z"
/>
<path class="logo-fill" d="
  M 398.25 475.19
  A 0.79 0.79 0.0 0 1 399.02 476.17
  Q 395.00 491.98 380.20 496.40
  C 366.58 500.47 350.95 496.19 343.25 484.06
  C 336.87 474.01 336.26 459.17 341.22 448.41
  C 347.03 435.79 361.24 429.74 374.75 431.42
  C 386.15 432.84 396.47 440.41 398.66 452.10
  A 1.10 1.10 0.0 0 1 397.70 453.39
  L 387.54 454.52
  A 1.20 1.19 -12.6 0 1 386.27 453.72
  C 383.76 446.36 377.92 442.43 370.01 442.34
  C 353.01 442.15 347.29 461.05 352.15 474.39
  C 355.57 483.77 364.23 488.58 373.86 486.56
  Q 382.75 484.70 386.40 475.80
  A 1.00 0.98 11.0 0 1 387.32 475.19
  L 398.25 475.19
  Z"
/>
<path class="logo-fill" d="
  M 507.06 431.12
  Q 510.59 431.15 513.69 431.85
  C 530.15 435.55 538.78 448.23 538.62 464.83
  C 538.45 481.44 529.58 493.95 513.06 497.33
  Q 509.95 497.97 506.41 497.93
  Q 502.88 497.90 499.78 497.20
  C 483.33 493.50 474.70 480.83 474.86 464.22
  C 475.02 447.61 483.89 435.11 500.42 431.72
  Q 503.53 431.08 507.06 431.12
  Z
  M 507.3430 442.0658
  A 22.61 19.54 -88.7 0 0 487.2950 464.2267
  A 22.61 19.54 -88.7 0 0 506.3170 487.2742
  A 22.61 19.54 -88.7 0 0 526.3650 465.1133
  A 22.61 19.54 -88.7 0 0 507.3430 442.0658
  Z"
/>
<path class="logo-fill" d="
  M 152.94 432.69
  Q 156.51 432.69 159.84 432.73
  A 0.89 0.88 80.3 0 1 160.65 433.31
  L 183.75 496.11
  A 0.43 0.42 -10.4 0 1 183.35 496.68
  L 171.78 496.68
  A 0.83 0.83 0.0 0 1 171.00 496.14
  L 166.17 483.03
  A 0.82 0.81 79.4 0 0 165.39 482.49
  Q 163.27 482.54 152.94 482.54
  Q 142.61 482.54 140.50 482.49
  A 0.82 0.81 -79.4 0 0 139.72 483.03
  L 134.89 496.14
  A 0.83 0.83 0.0 0 1 134.11 496.68
  L 122.54 496.68
  A 0.43 0.42 10.4 0 1 122.14 496.11
  L 145.23 433.31
  A 0.89 0.88 -80.3 0 1 146.05 432.73
  Q 149.38 432.69 152.94 432.69
  Z
  M 143.82 471.40
  A 0.35 0.35 0.0 0 0 144.15 471.87
  L 161.45 471.99
  A 0.35 0.35 0.0 0 0 161.79 471.53
  L 153.30 447.11
  A 0.35 0.35 0.0 0 0 152.64 447.11
  L 143.82 471.40
  Z"
/>
<path class="logo-fill" d="
  M 204.29 496.69
  L 192.94 496.69
  A 0.52 0.52 0.0 0 1 192.42 496.17
  L 192.42 433.33
  A 0.61 0.61 0.0 0 1 193.03 432.72
  Q 208.88 432.67 219.24 432.73
  C 232.45 432.80 242.21 441.63 241.42 455.32
  C 240.70 467.63 230.74 473.89 219.36 474.24
  Q 213.21 474.44 205.51 474.18
  A 0.61 0.60 -88.7 0 0 204.88 474.79
  L 204.88 496.11
  A 0.59 0.58 -0.0 0 1 204.29 496.69
  Z
  M 204.89 443.73
  L 204.85 463.27
  A 0.40 0.40 0.0 0 0 205.25 463.67
  L 218.26 463.69
  A 10.35 9.57 0.1 0 0 228.63 454.14
  L 228.63 452.94
  A 10.35 9.57 0.1 0 0 218.30 443.35
  L 205.29 443.33
  A 0.40 0.40 0.0 0 0 204.89 443.73
  Z"
/>
<path class="logo-fill" d="
  M 301.08 496.68
  L 288.70 496.68
  A 0.52 0.52 0.0 0 1 288.25 496.42
  L 274.94 473.37
  A 1.07 1.06 74.7 0 0 274.02 472.84
  L 265.16 472.84
  A 0.61 0.60 -90.0 0 0 264.56 473.45
  L 264.56 496.18
  A 0.51 0.51 0.0 0 1 264.05 496.69
  L 252.95 496.69
  A 0.74 0.74 0.0 0 1 252.21 495.95
  L 252.21 433.32
  A 0.60 0.59 -0.5 0 1 252.80 432.73
  Q 258.52 432.70 276.25 432.68
  C 281.72 432.68 286.09 433.37 290.78 435.70
  C 294.89 437.73 298.33 443.24 299.31 447.60
  Q 301.73 458.36 294.65 466.84
  C 292.83 469.01 290.47 470.13 287.94 471.11
  A 0.69 0.68 -25.6 0 0 287.59 472.09
  L 301.43 496.07
  A 0.41 0.40 -15.2 0 1 301.08 496.68
  Z
  M 264.64 443.95
  L 264.46 461.37
  A 0.67 0.67 0.0 0 0 265.12 462.04
  L 277.15 462.17
  A 10.64 8.46 0.6 0 0 287.88 453.82
  L 287.90 451.98
  A 10.64 8.46 0.6 0 0 277.35 443.41
  L 265.32 443.29
  A 0.67 0.67 0.0 0 0 264.64 443.95
  Z"
/>
<rect class="logo-fill" x="313.37" y="432.72" width="12.20" height="64.00" rx="0.65"/>
<path class="logo-fill" d="
  M 437.16 457.80
  Q 450.05 457.80 450.70 457.79
  A 0.63 0.62 -0.2 0 0 451.33 457.17
  L 451.33 433.27
  A 0.57 0.56 90.0 0 1 451.89 432.70
  L 462.94 432.70
  A 0.51 0.51 0.0 0 1 463.45 433.21
  L 463.45 496.21
  A 0.49 0.48 -90.0 0 1 462.97 496.70
  L 451.93 496.70
  A 0.62 0.61 -90.0 0 1 451.32 496.08
  L 451.32 469.40
  A 0.65 0.64 -0.4 0 0 450.66 468.76
  Q 448.44 468.80 437.16 468.80
  Q 425.89 468.80 423.67 468.76
  A 0.65 0.64 0.4 0 0 423.01 469.40
  L 423.01 496.08
  A 0.62 0.61 -90.0 0 1 422.40 496.70
  L 411.36 496.70
  A 0.49 0.48 -90.0 0 1 410.88 496.21
  L 410.88 433.21
  A 0.51 0.51 0.0 0 1 411.39 432.70
  L 422.44 432.70
  A 0.57 0.56 -90.0 0 1 423.00 433.27
  L 423.00 457.17
  A 0.63 0.62 0.2 0 0 423.63 457.79
  Q 424.28 457.79 437.16 457.80
  Z"
/>
</svg>
