<?xml version="1.0" encoding="UTF-8"?>
<!-- Created with Inkscape (http://www.inkscape.org/) -->
<svg width="89.996mm" height="87.584mm" version="1.1" viewBox="0 0 89.996 87.584" xml:space="preserve" xmlns="http://www.w3.org/2000/svg"><defs><style>
      .logo-fill {
        fill: #131313;
      }

      @media (prefers-color-scheme: light) {
        .logo-fill {
          fill: #F9F7F7;
        }
      }
    </style></defs><g transform="translate(-3.0207 14.539)"><g transform="matrix(.26458 0 0 .26458 -29.948 -26.189)"><path class="logo-fill" d="m180.81 44.03c3.33-0.01 3.9 2.5 4.21 5.4 1.49 14.25 5.22 28.24 16.74 36.6q8.54 6.19 20.04 8.37 3.06 0.57 6.23 1.3c2.95 0.68 3.41 4.77 1.49 6.79q-0.84 0.89-4.26 1.4c-14.29 2.14-26.24 8.85-33.42 21.11-2.88 4.9-5.2 12.84-5.9 18.24q-0.94 7.18-1.32 8.39-0.91 2.86-3.72 2.86-2.82 0.01-3.73-2.86-0.38-1.2-1.34-8.38c-0.71-5.4-3.04-13.34-5.93-18.23-7.2-12.25-19.16-18.94-33.45-21.06q-3.42-0.5-4.26-1.39c-1.93-2.02-1.47-6.11 1.48-6.79q3.17-0.74 6.22-1.31 11.5-2.2 20.03-8.41c11.51-8.37 15.22-22.37 16.69-36.63 0.3-2.89 0.86-5.4 4.2-5.4zm-0.06 26.42q-2.06 5.02-2.95 6.85c-5.29 10.76-14.7 17.94-25.61 22.15a0.39 0.39 0 0 0 0.01 0.73c13.99 4.88 23.42 15.01 28.56 28.82a0.24 0.24 0 0 0 0.44 0.02q1.5-2.96 2.1-4.26 8.07-17.53 25.6-25.1a0.38 0.38 0 0 0-0.02-0.71q-20.64-7.49-27.57-28.48a0.3 0.3 0 0 0-0.56-0.02z"/><path class="logo-fill" d="m335.84 216.72a0.38 0.38 0 0 0 0.15 0.71q30.46 3.49 58.41 13.16c19.89 6.87 40.36 17.31 54.45 33.04a0.81 0.8-50.7 0 0 1.29-0.13c5.5-9.25 8.23-17.91 4.14-28.19-4.08-10.25-12.25-18.01-21.59-24.61a4.08 4.08 0 0 1-0.96-5.71l0.14-0.2a4.04 4.04 0 0 1 5.56-0.99c12.39 8.42 22.64 19.15 26.22 32.68q1.19 4.52 1.09 12.72-0.11 8.12-0.03 44.46 0.02 7.95-1.31 12.57c-4.28 14.83-16.61 26.68-29.72 34.98q-20.04 12.68-43.91 20.11-34.53 10.74-72.69 13.03c-40.18 2.41-79.54-1.23-117.42-13.01q-23.97-7.45-44.46-20.26c-12.85-8.03-25.03-19.79-29.27-34.89q-1.43-5.1-1.28-19.95 0.12-12.1-0.03-28.43-0.14-16.52 1.23-21.06c4.98-16.47 19.2-28.51 33.84-36.59 21.18-11.7 43.38-18.17 67.75-22.48a0.67 0.67 0 0 0 0.55-0.66q0.03-23.88 0-45c0-4.53 1.65-6.37 5.61-8.7q40.42-23.81 56.9-33.35c3.98-2.3 6.15-0.77 10.2 1.58q39.48 22.87 56.52 32.95c2.88 1.71 3.47 4.15 3.47 7.64q-0.01 33.34 0.01 65.12c0 4.4-1.52 5.75-5.26 7.91q-9.52 5.49-19.6 11.55zm-41.32 14.25q0.45 0 0.66-0.12 28.5-16.89 55.91-32.82a2.45 2.44-15.2 0 0 1.21-2.11v-63.25a2.62 2.6-75.1 0 0-1.3-2.26q-28.47-16.46-56.23-32.69-0.13-0.07-0.44-0.07-0.32 0-0.45 0.07-27.71 16.31-56.13 32.85a2.62 2.6 74.9 0 0-1.3 2.27l0.19 63.25a2.45 2.44 15.1 0 0 1.21 2.1q27.46 15.85 56.01 32.66 0.21 0.12 0.66 0.12zm-41.29-14.21q-7.83-4.88-20.78-12.2-4.06-2.29-4.34-6.33-0.23-3.45-0.09-10.77a0.91 0.91 0 0 0-1.07-0.91q-24.86 4.26-47.34 13.55c-15.75 6.5-33.01 16.1-42 30.75-7.04 11.49-5.32 21.77 1.47 32.91a0.77 0.77 0 0 0 1.22 0.12q12.92-14.05 30.54-23.05 25.7-13.13 55.86-19.17 11.92-2.38 26.42-4.42a0.26 0.26 0 0 0 0.11-0.48zm41.38 97.8q3.8 0 15.39-0.49c28.02-1.19 54.84-5.26 81.27-13.85q16.58-5.38 31.31-13.79c6.39-3.65 12.91-8.55 18.22-12.38q0.71-0.52 2.65-2.72a0.65 0.64 45.4 0 0 0-0.83c-9.28-10.95-21.54-18.92-34.85-25.1-26.86-12.45-55.05-18.16-84.54-21.2a2.47 2.46-56.6 0 0-1.5 0.31l-23.11 13.35a2.18 2.17-15.1 0 0-1.09 1.88q0.04 14.42 0.05 25.91c0 2.85-0.4 5.75-3.8 5.75-3.39 0-3.79-2.9-3.79-5.75q0.01-11.49 0.05-25.91a2.18 2.17 15.1 0 0-1.09-1.88l-23.11-13.35a2.47 2.46 56.6 0 0-1.5-0.31c-29.49 3.03-57.68 8.74-84.54 21.19-13.31 6.18-25.57 14.15-34.85 25.1a0.65 0.64-45.4 0 0 0 0.83q1.94 2.2 2.65 2.72c5.31 3.83 11.83 8.73 18.22 12.38q14.73 8.41 31.31 13.79c26.42 8.59 53.24 12.67 81.26 13.85q11.6 0.5 15.39 0.5zm-0.04 8.27q-11.7-0.01-26.31-1.09c-27.86-2.06-55.11-6.96-81.26-16.64-13.69-5.07-28.36-12.32-39.59-21.72q-8.69-7.28-10.73-9.58-2.3-2.6-3.23-3.49a0.28 0.28 0 0 0-0.47 0.2q-0.01 10.86-0.04 21.06-0.03 8.4 1.15 12.32c5.57 18.55 25.4 31.31 41.93 39.08 36.51 17.17 78.57 23.82 118.52 23.85 39.96 0.02 82.03-6.57 118.56-23.69 16.54-7.75 36.39-20.49 41.98-39.03q1.19-3.92 1.17-12.32-0.02-10.2-0.02-21.06a0.28 0.28 0 0 0-0.47-0.2q-0.93 0.89-3.23 3.49-2.04 2.29-10.74 9.56c-11.24 9.39-25.92 16.62-39.62 21.67-26.16 9.65-53.42 14.51-81.28 16.54q-14.62 1.06-26.32 1.05z"/><rect class="logo-fill" transform="rotate(30.2 -71.956 650.76)" x="-29.51" y="-4.14" width="59.02" height="8.28" rx="4.08"/><path class="logo-fill" d="m414.31 126.57c3.59 0 4.22 2.91 4.33 6.01q0.09 2.34 0.92 6.15c3.12 14.22 12.23 20.2 25.8 22.92 2.28 0.46 4.05 2.59 3.46 5.05-0.51 2.11-2.06 2.92-4.25 3.38-15.08 3.2-24.02 11.26-25.7 27.06-0.41 3.87-0.36 8.57-4.63 8.56-4.27 0-4.21-4.69-4.61-8.57-1.66-15.8-10.58-23.88-25.66-27.1-2.19-0.47-3.74-1.28-4.24-3.39-0.59-2.46 1.19-4.59 3.47-5.04 13.57-2.7 22.69-8.66 25.84-22.88q0.83-3.81 0.92-6.15c0.12-3.1 0.76-6 4.35-6zm-16.83 39.07q0 0.13 0.06 0.24 0.04 0.09 0.17 0.15 11.41 4.78 16.36 16.04a0.37 0.37 0 0 0 0.68-0.02q4.3-11 15.14-16 0.16-0.08 0.2-0.14 0.06-0.11 0.06-0.25 0-0.13-0.06-0.24-0.04-0.06-0.2-0.14-10.83-5.02-15.12-16.03a0.37 0.37 0 0 0-0.68-0.02q-4.96 11.26-16.38 16.02-0.13 0.06-0.17 0.15-0.06 0.11-0.06 0.24z"/><rect class="logo-fill" transform="rotate(.1 -94122 142164)" x="-4.3" y="-29.83" width="8.6" height="59.66" rx="4.17"/><rect class="logo-fill" transform="rotate(-30.5 533.59 -480.21)" x="-29.58" y="-4.19" width="59.16" height="8.38" rx="4.13"/><circle class="logo-fill" cx="341.07" cy="261.65" r="8.26"/><ellipse class="logo-fill" transform="rotate(-4 3941.3 -2969.7)" rx="10.64" ry="10.27"/><ellipse class="logo-fill" transform="rotate(180.7 189.99 138.89)" rx="7.13" ry="6.6"/><ellipse class="logo-fill" transform="rotate(188.1 138.07 136.1)" rx="7.41" ry="7.22"/></g></g></svg>
